<svg width="164.502" height="84.522" viewBox="0 0 164.502 84.522" xmlns="http://www.w3.org/2000/svg"><g id="svgGroup" stroke-linecap="round" fill-rule="evenodd" font-size="9pt" stroke="#ffffff" stroke-width="0.25mm" fill="#000000" style="stroke:#ffffff;stroke-width:0.25mm;fill:#000000"><path d="M 68.714 72.315 A 11.278 11.278 0 0 0 69.117 72.119 Q 70.37 71.481 71.858 70.524 A 45.165 45.165 0 0 0 72.071 70.386 A 79.776 79.776 0 0 0 74.142 68.988 A 95.413 95.413 0 0 0 75.44 68.067 A 95.104 95.104 0 0 0 77.853 66.267 A 81.874 81.874 0 0 0 78.736 65.576 Q 80.274 64.356 81.495 63.33 A 1384.908 1384.908 0 0 1 82.032 62.879 A 60.493 60.493 0 0 1 82.105 62.427 A 95.588 95.588 0 0 1 83.03 57.586 A 115.619 115.619 0 0 1 83.741 54.517 A 116.974 116.974 0 0 1 86.109 46.216 Q 87.452 42.09 88.917 38.916 A 116.512 116.512 0 0 1 91.938 32.788 A 88.172 88.172 0 0 1 95.044 27.393 A 103.94 103.94 0 0 1 98.16 22.691 A 75.809 75.809 0 0 1 101.221 18.628 A 70.547 70.547 0 0 1 103.823 15.589 Q 105.466 13.782 107.032 12.354 Q 109.163 10.41 110.964 9.038 A 35.302 35.302 0 0 1 112.037 8.252 Q 114.209 6.724 115.728 6.037 A 10.986 10.986 0 0 1 115.796 6.006 Q 117.174 5.394 117.788 5.33 A 1.287 1.287 0 0 1 117.92 5.322 Q 118.848 5.664 119.8 6.323 Q 120.752 6.983 121.583 7.715 A 19.491 19.491 0 0 1 122.455 8.531 A 15.508 15.508 0 0 1 123.047 9.155 A 146.825 146.825 0 0 1 123.343 9.486 Q 123.745 9.938 123.964 10.193 A 19.646 19.646 0 0 1 123.975 10.205 Q 124.366 10.596 124.488 10.962 A 2.058 2.058 0 0 1 124.562 11.266 Q 124.589 11.424 124.601 11.609 A 4.805 4.805 0 0 1 124.61 11.914 A 6.544 6.544 0 0 1 124.554 12.721 Q 124.429 13.719 124.024 15.137 Q 123.465 17.094 121.972 20.052 A 59.01 59.01 0 0 1 121.827 20.337 Q 120.215 23.486 117.359 27.881 A 104.943 104.943 0 0 1 114.973 31.383 Q 112.781 34.473 109.913 38.135 A 200.016 200.016 0 0 1 105.966 42.995 A 220.034 220.034 0 0 1 105.372 43.701 A 118.478 118.478 0 0 1 103.162 46.253 A 162.554 162.554 0 0 1 100.635 49.024 Q 97.95 51.904 95.118 54.541 A 105.654 105.654 0 0 0 94.176 58.391 Q 93.491 61.45 93.14 64.014 A 92.463 92.463 0 0 0 92.894 65.952 Q 92.653 68.047 92.596 69.548 A 22.919 22.919 0 0 0 92.579 70.41 A 14.713 14.713 0 0 0 92.59 71.021 Q 92.632 72.02 92.823 72.363 A 1.024 1.024 0 0 0 92.992 72.593 A 0.7 0.7 0 0 0 93.506 72.803 Q 94.167 72.803 95.228 72.315 A 11.278 11.278 0 0 0 95.63 72.119 Q 96.884 71.481 98.372 70.524 A 45.165 45.165 0 0 0 98.584 70.386 A 79.776 79.776 0 0 0 100.656 68.988 A 95.413 95.413 0 0 0 101.954 68.067 A 95.104 95.104 0 0 0 104.367 66.267 A 81.874 81.874 0 0 0 105.25 65.576 Q 106.788 64.356 108.008 63.33 Q 109.229 62.305 109.815 61.817 A 17.705 17.705 0 0 1 109.884 61.886 A 134.784 134.784 0 0 1 111.5 57.398 A 435.953 435.953 0 0 1 112.381 55.1 Q 112.788 54.049 113.16 53.107 A 256.987 256.987 0 0 1 113.404 52.49 A 90.404 90.404 0 0 1 113.817 51.468 Q 114.417 50.012 114.893 49.024 Q 115.433 47.903 115.655 47.735 A 0.12 0.12 0 0 1 115.723 47.705 A 0.619 0.619 0 0 1 115.878 47.731 Q 116.254 47.834 117.188 48.34 A 23.118 23.118 0 0 1 118.545 49.139 A 29.771 29.771 0 0 1 119.654 49.878 A 19.097 19.097 0 0 1 121.375 51.227 A 16.557 16.557 0 0 1 121.973 51.782 A 6.135 6.135 0 0 1 122.416 52.259 Q 122.999 52.964 122.999 53.516 Q 122.999 53.662 122.95 53.882 A 5.888 5.888 0 0 1 122.922 53.999 Q 122.876 54.187 122.803 54.443 Q 122.535 55.283 122.162 56.33 A 100.375 100.375 0 0 1 121.802 57.324 A 256.539 256.539 0 0 1 120.846 59.883 A 287.336 287.336 0 0 1 120.508 60.767 L 119.141 64.331 A 113.171 113.171 0 0 0 118.494 66.058 A 91.154 91.154 0 0 0 117.92 67.676 Q 117.551 68.75 117.274 69.64 A 44.77 44.77 0 0 0 117.042 70.41 A 15.811 15.811 0 0 0 116.892 70.957 Q 116.7 71.716 116.7 72.119 A 0.422 0.422 0 0 0 116.714 72.235 Q 116.751 72.365 116.884 72.4 A 0.432 0.432 0 0 0 116.993 72.412 Q 117.402 72.412 118.122 72.044 A 9.017 9.017 0 0 0 118.604 71.777 A 21.872 21.872 0 0 0 119.454 71.246 Q 119.92 70.941 120.435 70.576 A 42.805 42.805 0 0 0 121.07 70.117 A 78.954 78.954 0 0 0 122.857 68.759 A 94.112 94.112 0 0 0 123.975 67.871 A 121.062 121.062 0 0 0 126.417 65.851 A 21.009 21.009 0 0 1 127.027 63.55 Q 128.126 60.205 129.932 57.52 A 24.649 24.649 0 0 1 134.058 52.783 A 26.875 26.875 0 0 1 137.801 49.996 A 24.065 24.065 0 0 1 138.892 49.365 A 24.706 24.706 0 0 1 142.338 47.809 A 21.256 21.256 0 0 1 143.897 47.315 A 20.521 20.521 0 0 1 146.218 46.813 A 14.999 14.999 0 0 1 148.487 46.631 A 5.52 5.52 0 0 1 150.65 47.085 A 7.044 7.044 0 0 1 151.49 47.51 A 12.703 12.703 0 0 1 154.2 49.658 A 13.105 13.105 0 0 1 155.602 51.377 A 11.228 11.228 0 0 1 156.177 52.319 A 8.339 8.339 0 0 1 156.576 53.153 Q 156.755 53.591 156.844 53.985 A 3.403 3.403 0 0 1 156.934 54.736 A 4.423 4.423 0 0 1 156.564 56.468 Q 156.303 57.085 155.859 57.711 A 8.817 8.817 0 0 1 155.542 58.13 A 14.406 14.406 0 0 1 154.222 59.55 Q 153.533 60.205 152.686 60.869 A 28.844 28.844 0 0 1 151.612 61.67 A 43.508 43.508 0 0 1 149.194 63.265 Q 147.513 64.299 145.508 65.357 A 114.464 114.464 0 0 1 141.761 67.243 A 144.156 144.156 0 0 1 137.647 69.141 A 18.495 18.495 0 0 0 137.501 71.436 A 5.426 5.426 0 0 0 137.542 72.131 Q 137.64 72.888 137.972 73.298 A 1.292 1.292 0 0 0 138.16 73.486 A 1.757 1.757 0 0 0 138.652 73.758 Q 139.355 74.024 140.626 74.024 A 17.202 17.202 0 0 0 146.346 73.079 A 16.406 16.406 0 0 0 146.705 72.949 Q 149.561 71.875 152.198 70.166 Q 154.834 68.457 157.276 66.26 Q 159.717 64.063 162.11 61.817 L 164.502 64.209 Q 160.309 68.312 156.562 71.18 A 61.316 61.316 0 0 1 156.031 71.582 A 59.119 59.119 0 0 1 152.172 74.249 A 43.279 43.279 0 0 1 148.438 76.367 A 36.709 36.709 0 0 1 144.904 77.918 A 28.134 28.134 0 0 1 141.529 78.955 A 28.537 28.537 0 0 1 136.483 79.699 A 25.484 25.484 0 0 1 135.108 79.736 Q 133.79 79.736 132.178 78.76 Q 130.567 77.783 129.175 76.392 A 16.587 16.587 0 0 1 127.481 74.421 A 14.272 14.272 0 0 1 126.856 73.486 A 9.007 9.007 0 0 1 126.387 72.626 Q 125.956 71.714 125.93 70.992 A 2.556 2.556 0 0 1 125.93 70.982 A 137.542 137.542 0 0 1 123.218 73.193 A 62.498 62.498 0 0 1 120.733 75.074 A 51.912 51.912 0 0 1 119.288 76.074 A 33.177 33.177 0 0 1 117.5 77.19 Q 116.637 77.689 115.83 78.074 A 20.141 20.141 0 0 1 115.723 78.125 A 11.024 11.024 0 0 1 114.733 78.537 Q 114.223 78.719 113.769 78.811 A 4.421 4.421 0 0 1 112.891 78.906 A 2.764 2.764 0 0 1 112.348 78.847 Q 111.777 78.732 111.036 78.394 Q 109.913 77.881 108.887 77.124 A 9.336 9.336 0 0 1 107.439 75.809 A 8.434 8.434 0 0 1 107.129 75.44 A 4.155 4.155 0 0 1 106.712 74.808 Q 106.397 74.21 106.397 73.633 A 61.537 61.537 0 0 1 106.89 71.632 Q 107.159 70.608 107.489 69.471 A 109.631 109.631 0 0 1 107.715 68.701 A 202.315 202.315 0 0 1 107.874 68.174 A 83.773 83.773 0 0 1 106.984 68.971 A 98.07 98.07 0 0 1 105.835 69.971 A 137.542 137.542 0 0 1 101.929 73.193 A 58.334 58.334 0 0 1 99.434 75.074 A 49.11 49.11 0 0 1 97.974 76.074 A 35.159 35.159 0 0 1 96.225 77.157 Q 95.267 77.71 94.385 78.125 A 11.364 11.364 0 0 1 93.402 78.537 Q 92.409 78.894 91.654 78.906 A 3.283 3.283 0 0 1 91.602 78.906 A 4.874 4.874 0 0 1 90.046 78.638 Q 89.446 78.436 88.822 78.084 A 9.17 9.17 0 0 1 88.404 77.832 Q 86.719 76.758 85.254 75.317 A 22.829 22.829 0 0 1 83.67 73.598 A 18.536 18.536 0 0 1 82.764 72.412 Q 81.747 70.96 81.595 70.227 A 1.578 1.578 0 0 1 81.592 70.215 Q 81.495 69.922 81.495 69.507 L 81.495 68.604 A 25.391 25.391 0 0 1 81.503 68.044 A 83.773 83.773 0 0 1 80.47 68.971 A 98.07 98.07 0 0 1 79.322 69.971 A 137.542 137.542 0 0 1 75.416 73.193 A 58.334 58.334 0 0 1 72.921 75.074 A 49.11 49.11 0 0 1 71.46 76.074 A 35.159 35.159 0 0 1 69.711 77.157 Q 68.754 77.71 67.872 78.125 A 11.364 11.364 0 0 1 66.888 78.537 Q 65.895 78.894 65.14 78.906 A 3.283 3.283 0 0 1 65.088 78.906 A 4.874 4.874 0 0 1 63.532 78.638 Q 62.932 78.436 62.309 78.084 A 9.17 9.17 0 0 1 61.89 77.832 Q 60.206 76.758 58.741 75.317 A 22.829 22.829 0 0 1 57.156 73.598 A 18.536 18.536 0 0 1 56.251 72.412 Q 55.234 70.96 55.081 70.227 A 1.578 1.578 0 0 1 55.079 70.215 Q 54.981 69.922 54.981 69.507 L 54.981 68.604 Q 54.981 66.963 55.256 64.739 A 60.493 60.493 0 0 1 55.591 62.427 A 95.588 95.588 0 0 1 56.516 57.586 A 115.619 115.619 0 0 1 57.227 54.517 A 116.974 116.974 0 0 1 59.595 46.216 Q 60.938 42.09 62.403 38.916 A 116.512 116.512 0 0 1 65.424 32.788 A 88.172 88.172 0 0 1 68.531 27.393 A 103.94 103.94 0 0 1 71.647 22.691 A 75.809 75.809 0 0 1 74.708 18.628 A 70.547 70.547 0 0 1 77.31 15.589 Q 78.953 13.782 80.518 12.354 Q 82.649 10.41 84.451 9.038 A 35.302 35.302 0 0 1 85.523 8.252 Q 87.695 6.724 89.214 6.037 A 10.986 10.986 0 0 1 89.283 6.006 Q 90.661 5.394 91.274 5.33 A 1.287 1.287 0 0 1 91.407 5.322 Q 92.334 5.664 93.287 6.323 Q 94.239 6.983 95.069 7.715 A 19.491 19.491 0 0 1 95.941 8.531 A 15.508 15.508 0 0 1 96.534 9.155 A 146.825 146.825 0 0 1 96.83 9.486 Q 97.232 9.938 97.451 10.193 A 19.646 19.646 0 0 1 97.461 10.205 Q 97.852 10.596 97.974 10.962 A 2.058 2.058 0 0 1 98.048 11.266 Q 98.075 11.424 98.087 11.609 A 4.805 4.805 0 0 1 98.096 11.914 A 6.544 6.544 0 0 1 98.04 12.721 Q 97.915 13.719 97.51 15.137 Q 96.951 17.094 95.458 20.052 A 59.01 59.01 0 0 1 95.313 20.337 Q 93.702 23.486 90.845 27.881 A 104.943 104.943 0 0 1 88.459 31.383 Q 86.268 34.473 83.399 38.135 A 200.016 200.016 0 0 1 79.452 42.995 A 220.034 220.034 0 0 1 78.858 43.701 A 118.478 118.478 0 0 1 76.648 46.253 A 162.554 162.554 0 0 1 74.122 49.024 Q 71.436 51.904 68.604 54.541 A 105.654 105.654 0 0 0 67.662 58.391 Q 66.977 61.45 66.626 64.014 A 92.463 92.463 0 0 0 66.381 65.952 Q 66.139 68.047 66.082 69.548 A 22.919 22.919 0 0 0 66.065 70.41 A 14.713 14.713 0 0 0 66.077 71.021 Q 66.118 72.02 66.309 72.363 A 1.024 1.024 0 0 0 66.478 72.593 A 0.7 0.7 0 0 0 66.993 72.803 Q 67.653 72.803 68.714 72.315 Z M 53.516 36.133 L 45.118 28.711 A 20.994 20.994 0 0 0 47.174 26.776 A 27.354 27.354 0 0 0 48.731 24.951 Q 50.489 22.705 51.856 20.215 Q 53.223 17.725 54.053 15.137 Q 54.883 12.549 54.883 10.303 A 6.355 6.355 0 0 0 54.731 8.878 A 4.708 4.708 0 0 0 54.029 7.251 A 2.594 2.594 0 0 0 52.784 6.3 Q 52.021 6.006 50.928 6.006 Q 49.208 6.006 47.169 6.723 A 17.038 17.038 0 0 0 46.729 6.885 A 22.641 22.641 0 0 0 43.841 8.241 A 27.68 27.68 0 0 0 42.09 9.302 A 31.057 31.057 0 0 0 38.643 11.939 A 35.81 35.81 0 0 0 37.525 12.964 A 29.342 29.342 0 0 0 33.594 17.578 A 25.13 25.13 0 0 0 30.835 22.803 A 15.287 15.287 0 0 0 29.786 28.32 A 16.4 16.4 0 0 0 29.89 30.222 Q 30.002 31.177 30.233 31.997 A 9.152 9.152 0 0 0 30.372 32.446 A 9.474 9.474 0 0 0 32.081 35.523 A 13.6 13.6 0 0 0 33.98 37.376 A 16.068 16.068 0 0 0 34.791 37.988 A 47.287 47.287 0 0 0 36.493 39.136 A 64.294 64.294 0 0 0 38.428 40.332 A 55.079 55.079 0 0 0 27.125 46.704 A 53.851 53.851 0 0 0 20.787 52.13 A 46.146 46.146 0 0 0 18.262 54.883 A 40.8 40.8 0 0 0 14.263 60.481 A 34.213 34.213 0 0 0 12.476 63.941 A 25.362 25.362 0 0 0 10.936 68.442 A 19.445 19.445 0 0 0 10.401 72.9 A 5.296 5.296 0 0 0 10.608 74.405 A 4.508 4.508 0 0 0 11.133 75.562 A 2.392 2.392 0 0 0 12.871 76.669 A 3.683 3.683 0 0 0 13.428 76.709 A 8.969 8.969 0 0 0 15.387 76.478 Q 16.28 76.278 17.249 75.905 A 17.241 17.241 0 0 0 18.018 75.586 A 32.452 32.452 0 0 0 20.936 74.106 A 41.651 41.651 0 0 0 23.292 72.656 Q 26.026 70.85 28.785 68.604 A 98.414 98.414 0 0 0 33.312 64.69 A 88.566 88.566 0 0 0 33.96 64.087 A 102.096 102.096 0 0 0 36.249 61.871 A 79.166 79.166 0 0 0 38.282 59.766 A 97.159 97.159 0 0 0 39.185 58.78 Q 40.382 57.455 41.195 56.442 A 31.252 31.252 0 0 0 41.309 56.299 Q 43.323 57.91 44.968 59.279 A 158.801 158.801 0 0 1 46.387 60.474 Q 48.536 62.305 50.391 63.818 A 15.844 15.844 0 0 1 49.837 64.52 Q 49.019 65.505 47.632 66.943 Q 45.832 68.812 43.393 70.937 A 94.269 94.269 0 0 1 43.042 71.24 A 104.65 104.65 0 0 1 39.525 74.138 A 124.181 124.181 0 0 1 37.232 75.903 A 67.287 67.287 0 0 1 30.835 80.176 A 45.956 45.956 0 0 1 26.405 82.471 A 39.514 39.514 0 0 1 24.415 83.301 A 20.53 20.53 0 0 1 21.832 84.114 Q 20.448 84.445 19.182 84.507 A 11.784 11.784 0 0 1 18.604 84.522 A 13.951 13.951 0 0 1 14.039 83.74 A 20.687 20.687 0 0 1 9.717 81.665 A 23.105 23.105 0 0 1 5.933 78.687 A 26.788 26.788 0 0 1 3.58 76.091 A 23.695 23.695 0 0 1 2.906 75.195 A 20.964 20.964 0 0 1 1.489 72.937 A 17.499 17.499 0 0 1 0.831 71.582 Q 0.049 69.775 0.001 68.213 L 0.001 67.041 Q 0.001 61.914 1.807 57.373 A 31.415 31.415 0 0 1 6.763 48.999 A 40.441 40.441 0 0 1 14.005 42.163 A 44.719 44.719 0 0 1 14.136 42.066 A 55.45 55.45 0 0 1 23.194 36.67 A 28.024 28.024 0 0 1 21.688 35.036 A 31.211 31.211 0 0 1 21.46 34.766 A 12.095 12.095 0 0 1 20.201 32.922 A 13.849 13.849 0 0 1 19.947 32.446 A 12.314 12.314 0 0 1 19.228 30.705 A 15.087 15.087 0 0 1 18.897 29.541 A 13.514 13.514 0 0 1 18.587 27.662 A 17.976 17.976 0 0 1 18.506 25.928 A 18.992 18.992 0 0 1 19.727 19.238 Q 20.948 15.967 22.999 13.086 A 29.994 29.994 0 0 1 27.808 7.813 Q 30.567 5.42 33.643 3.687 A 31.306 31.306 0 0 1 39.942 0.977 A 22.753 22.753 0 0 1 44.088 0.115 A 19.502 19.502 0 0 1 46.192 0 A 39.005 39.005 0 0 1 48.517 0.064 Q 50.73 0.197 52.131 0.605 A 6.213 6.213 0 0 1 53.223 1.025 Q 54.617 1.763 56.2 3.052 A 29.025 29.025 0 0 1 56.812 3.565 A 31.583 31.583 0 0 1 60.401 7.202 A 26.763 26.763 0 0 1 62.41 9.913 A 22.795 22.795 0 0 1 63.184 11.206 A 11.215 11.215 0 0 1 63.823 12.55 Q 64.103 13.265 64.221 13.92 A 5.211 5.211 0 0 1 64.307 14.844 A 18.587 18.587 0 0 1 63.888 18.694 A 22.779 22.779 0 0 1 63.379 20.654 Q 62.452 23.682 60.938 26.538 A 36.914 36.914 0 0 1 57.471 31.909 A 32.971 32.971 0 0 1 55.506 34.223 A 24.75 24.75 0 0 1 53.516 36.133 Z M 74.805 37.012 A 106.854 106.854 0 0 0 73.629 39.74 A 96.139 96.139 0 0 0 73.267 40.625 Q 72.559 42.383 71.924 44.092 A 88.919 88.919 0 0 0 73.712 42.013 A 72.719 72.719 0 0 0 74.683 40.82 Q 75.539 39.746 76.222 38.88 A 277.777 277.777 0 0 0 76.807 38.135 Q 77.833 36.817 78.663 35.645 A 198.041 198.041 0 0 0 81.756 31.192 Q 83.191 29.062 84.409 27.114 A 119.867 119.867 0 0 0 84.571 26.856 Q 86.477 23.79 87.869 21.283 A 81.116 81.116 0 0 0 88.672 19.8 Q 90.266 16.781 91.024 14.766 A 21.423 21.423 0 0 0 91.041 14.722 A 24.06 24.06 0 0 0 91.363 13.808 Q 91.797 12.483 91.797 11.817 A 4.02 4.02 0 0 0 91.796 11.702 Q 91.792 11.581 91.781 11.499 A 0.826 0.826 0 0 0 91.773 11.45 Q 91.752 11.343 91.561 11.33 A 0.825 0.825 0 0 0 91.504 11.328 A 0.606 0.606 0 0 0 91.269 11.392 Q 90.754 11.624 89.586 12.692 A 29.3 29.3 0 0 0 89.502 12.769 Q 88.152 14.013 86.273 16.516 A 64.984 64.984 0 0 0 85.669 17.334 A 64.917 64.917 0 0 0 83.891 19.922 Q 83.119 21.101 82.294 22.45 A 134.471 134.471 0 0 0 80.591 25.317 Q 77.784 30.176 74.805 37.012 Z M 101.319 37.012 A 106.854 106.854 0 0 0 100.142 39.74 A 96.139 96.139 0 0 0 99.781 40.625 Q 99.073 42.383 98.438 44.092 A 88.919 88.919 0 0 0 100.225 42.013 A 72.719 72.719 0 0 0 101.197 40.82 Q 102.053 39.746 102.736 38.88 A 277.777 277.777 0 0 0 103.321 38.135 Q 104.346 36.817 105.176 35.645 A 198.041 198.041 0 0 0 108.27 31.192 Q 109.705 29.062 110.923 27.114 A 119.867 119.867 0 0 0 111.084 26.856 Q 112.991 23.79 114.382 21.283 A 81.116 81.116 0 0 0 115.186 19.8 Q 116.78 16.781 117.538 14.766 A 21.423 21.423 0 0 0 117.554 14.722 A 24.06 24.06 0 0 0 117.876 13.808 Q 118.311 12.483 118.311 11.817 A 4.02 4.02 0 0 0 118.31 11.702 Q 118.306 11.581 118.295 11.499 A 0.826 0.826 0 0 0 118.287 11.45 Q 118.265 11.343 118.074 11.33 A 0.825 0.825 0 0 0 118.018 11.328 A 0.606 0.606 0 0 0 117.783 11.392 Q 117.267 11.624 116.1 12.692 A 29.3 29.3 0 0 0 116.016 12.769 Q 114.666 14.013 112.787 16.516 A 64.984 64.984 0 0 0 112.183 17.334 A 64.917 64.917 0 0 0 110.405 19.922 Q 109.632 21.101 108.807 22.45 A 134.471 134.471 0 0 0 107.105 25.317 Q 104.297 30.176 101.319 37.012 Z M 132.199 32.906 A 1.367 1.367 0 0 0 132.227 32.813 A 0.333 0.333 0 0 0 132.192 32.676 Q 132.086 32.446 131.663 32.063 A 8.55 8.55 0 0 0 131.373 31.812 A 12.671 12.671 0 0 0 131.258 31.717 Q 130.85 31.388 130.368 31.052 A 21.359 21.359 0 0 0 129.322 30.371 A 20.94 20.94 0 0 0 126.856 29.077 Q 125.586 28.516 124.708 28.516 A 0.455 0.455 0 0 0 124.543 28.55 Q 124.222 28.675 123.752 29.257 A 8.427 8.427 0 0 0 123.462 29.639 Q 123.047 30.218 122.638 30.907 A 24.327 24.327 0 0 0 121.876 32.3 A 27.416 27.416 0 0 0 120.508 35.474 A 16.915 16.915 0 0 0 120.454 35.627 Q 120.106 36.631 119.985 37.396 A 4.795 4.795 0 0 0 119.922 38.135 Q 119.922 38.333 120.454 38.757 A 7.813 7.813 0 0 0 120.728 38.965 Q 121.534 39.551 122.681 40.161 A 22.866 22.866 0 0 0 125.074 41.26 A 11.091 11.091 0 0 0 125.731 41.495 Q 126.136 41.625 126.495 41.7 A 4.739 4.739 0 0 0 127.198 41.797 Q 127.491 41.797 127.979 41.187 A 8.63 8.63 0 0 0 128.211 40.883 Q 128.593 40.359 129.004 39.649 A 39.78 39.78 0 0 0 129.548 38.678 A 49.113 49.113 0 0 0 130.103 37.622 A 44.374 44.374 0 0 0 130.507 36.812 A 37.044 37.044 0 0 0 131.104 35.523 A 155.596 155.596 0 0 0 131.367 34.921 Q 131.643 34.285 131.861 33.765 A 41.055 41.055 0 0 0 131.901 33.67 Q 132.125 33.131 132.199 32.906 Z M 145.188 53.033 A 7.549 7.549 0 0 0 145.167 53.052 A 12.123 12.123 0 0 0 144.141 54.097 Q 143.647 54.661 143.152 55.343 A 21.79 21.79 0 0 0 142.823 55.811 A 26.888 26.888 0 0 0 141.544 57.88 A 34.95 34.95 0 0 0 140.577 59.741 Q 139.502 61.963 138.721 64.356 A 57.856 57.856 0 0 0 142.261 61.865 A 26.702 26.702 0 0 0 144.633 59.841 A 23.306 23.306 0 0 0 145.362 59.107 A 15.734 15.734 0 0 0 146.73 57.463 A 12.75 12.75 0 0 0 147.559 56.152 A 6.969 6.969 0 0 0 148.194 54.591 A 5.691 5.691 0 0 0 148.389 53.125 A 1.23 1.23 0 0 0 148.121 52.344 A 0.863 0.863 0 0 0 147.617 52.034 A 1.356 1.356 0 0 0 147.315 52.002 Q 146.347 52.002 145.188 53.033 Z" vector-effect="non-scaling-stroke"/></g></svg>